<svg id="Layer_1" data-name="Layer 1" xmlns="http://www.w3.org/2000/svg" viewBox="0 0 175.82 91.23"><defs><style>.cls-1{fill:#338839;}</style></defs><title>logo</title><path class="cls-1" d="M150.37,81.59A48.9,48.9,0,0,1,141.31,89a6.51,6.51,0,0,0-2,2.68c-2.33,4.21-4.81,8.29-8.48,11.52a7.65,7.65,0,0,1-2.87,1.67c-1.43.42-2.94.52-4-.73a3.41,3.41,0,0,1-.11-4.06A13.25,13.25,0,0,1,127.16,96a55,55,0,0,1,7.72-5.25,8,8,0,0,0,4.2-5c-.92.6-1.67,1.11-2.44,1.59-3.32,2.08-5.73,1-6.42-2.81-.11-.62-.11-1.26-.18-2-1.11.16-1.58,1.06-2.2,1.7A18.86,18.86,0,0,1,123,88.07a2.52,2.52,0,0,1-3.79-1.22,5.17,5.17,0,0,1,.71-5.64,30.07,30.07,0,0,1,3-4,4.86,4.86,0,0,0,1.42-2.7,12.21,12.21,0,0,0-4.37,3.19c-3,3-6.13,5.83-8.57,9.34-.88,1.27-2,1.39-4.71.86,2.61-4.54,6.27-8.4,8.3-13.31A1.6,1.6,0,0,0,113,75a74.69,74.69,0,0,0-8,7.91,25.68,25.68,0,0,1-5.87,4.87,3.43,3.43,0,0,1-4.24-.19c-1.19-1.06-1.14-2.53-.74-4,.31-1.14.9-2.15,1.32-3.28a43.07,43.07,0,0,1-7.37,5.9,12.8,12.8,0,0,1-11.47,1.32l-.23-.08c-3.46-1.39-6.79-2.23-10.35.11-2,1.34-4.68,1-7,.63-1.68-.28-3.4-.87-3.86-3a2.43,2.43,0,0,1,1.15-2.85,6.27,6.27,0,0,1,3.88-1,39.64,39.64,0,0,1,9.18,1.56c1.09.35,2,.38,2.75-.68a80.9,80.9,0,0,0,6.71-11.58c.09-.18,0-.45,0-.83-2.46.13-4.72,1.46-7.19,1.18-.12-.81.45-.84.87-1,1.69-.46,3.38-1,5.1-1.31a5.1,5.1,0,0,0,3.66-2.75,45.86,45.86,0,0,1,12.11-14A10.83,10.83,0,0,1,99,49.37c3.21-.23,4.9,1.84,3.8,4.83a17.22,17.22,0,0,1-5.51,7.11,37.31,37.31,0,0,1-10.76,6.17,4,4,0,0,0-2.1,1.8c-1.45,2.38-2.67,4.89-4.35,7.16a46.46,46.46,0,0,1-5.43,6c-.35.32-.79.56-.87,1.09s.57.71,1,.82c1.63.38,3.27.74,4.9,1.15,4.74,1.16,8.58-.41,12-3.68,2.44-2.32,4.62-4.86,6.88-7.34a4.82,4.82,0,0,1,5.35-1.27c.34.78-.1,1.19-.41,1.64a104.24,104.24,0,0,0-6.18,9.4c-.48.84-1,1.65-.34,2.77,1.46.07,2.4-1,3.36-1.82,3.37-3.07,6.53-6.35,9.64-9.68a10.66,10.66,0,0,1,3.39-2.62c2.18-1,3.86.11,3.89,2.5a23.23,23.23,0,0,0,0,2.49,23.81,23.81,0,0,1,4.46-3.88,5.71,5.71,0,0,1,2.08-1.17A2.3,2.3,0,0,1,126.92,75c.3,2.29-1,4-2.24,5.62-1,1.27-1.78,2.65-2.66,4-.45.68-1.08,1.48-.34,2.49,1.06.22,1.78-.57,2.4-1.18a74.41,74.41,0,0,0,6.7-6.82,19.17,19.17,0,0,1,7.52-5.8c2.46-1,4.8-1.25,6.66,1.37a3.76,3.76,0,0,1,4.79-1.37l-7.41,13,.41.31a37,37,0,0,0,7-7,54.55,54.55,0,0,1,5.29-5.86c1.2-1.28,2.86-1.06,4.85-.65-1.52,2.48-3,4.71-4.29,7-1.2,2.17-3.27,4-3.08,7a4,4,0,0,0,3-1.29c3.65-2.88,6.15-6.69,8.53-10.58,1.44-2.36,1.62-2.51,4.67-2,.58,1-.14,1.63-.58,2.34-1.79,2.84-3.61,5.66-5.39,8.5-.53.86-1.25,1.71-.64,2.9.91.27,1.47-.35,2-.86a62.42,62.42,0,0,0,6.64-6.57,26.45,26.45,0,0,1,7.42-6c3.06-1.7,5.05-1.41,7.4,1,1.08-1.83,2.78-2.1,4.79-1.74.46,1-.27,1.62-.74,2.29-2.15,3-3.93,6.21-5.84,9.35a2.49,2.49,0,0,0-.58,2.06c.87.6,1.46-.1,2.06-.54a58.15,58.15,0,0,0,4.7-4.45c.55-.5.95-1.37,1.93-1.08a.81.81,0,0,1,.05,1.29c-2,2.1-3.76,4.37-6.33,5.8-3.08,1.71-4.46,1.21-5.53-2.22a13.2,13.2,0,0,1-4.35,2.93,3.05,3.05,0,0,1-4.44-1.85,12.32,12.32,0,0,1-.88-4.46l-3.77,3.79a13.84,13.84,0,0,1-1.06,1c-2.73,2.18-5.18,3.37-6.92-1.87-1.18.87-2,2.05-3.28,2.77-1.92,1.1-3.45,1.19-4.67.18s-1.51-2.54-.86-4.59c.17-.52.27-1.08.4-1.62M86,66c2.73-.55,4.44-2.2,6.47-3.23,3.2-1.62,5.45-4.31,7.65-7a6.24,6.24,0,0,0,1.07-2.63c.37-1.74-.76-2.78-2.48-2.4a7.53,7.53,0,0,0-3.29,1.84A35.87,35.87,0,0,0,86,66Zm87.66,19.1c.08.67.1,1.29.68,1.57a1.92,1.92,0,0,0,2-.35,19.12,19.12,0,0,0,6.61-8,8.24,8.24,0,0,0,.62-2.3,1.64,1.64,0,0,0-2.15-2,4.56,4.56,0,0,0-1.68.9,19.83,19.83,0,0,0-5.59,7.93A14.11,14.11,0,0,0,173.7,85.14Zm-40.55.43c0,1.51.84,1.92,2.23,1.05a17.93,17.93,0,0,0,7.51-9.84,2,2,0,0,0-.55-2.4c-.74-.64-1.47-.3-2.21.06-2.42,1.18-3.87,3.3-5.12,5.51A12.78,12.78,0,0,0,133.15,85.57Zm2.93,6.06c-3.69,2.15-7.4,4.27-9.57,8.19-.61,1.11-1.48,2.22-.43,3.48.64.76,2.28.23,3.58-1,.05-.06.12-.11.16-.17C132.2,98.82,134.61,95.56,136.08,91.63ZM68.54,85.1a17.27,17.27,0,0,0-5.66-1.93c-1.22-.22-2.46-.69-3.76-.3-1,.31-2.14.52-2.22,1.81s.92,1.78,1.92,2.14C62.19,88,65.14,86.82,68.54,85.1Z" transform="translate(-16.51 -13.92)"/><path class="cls-1" d="M107.52,62a1.82,1.82,0,0,1,1.57,1.92,2.21,2.21,0,0,1-2.16,2.34,2,2,0,0,1-2.09-1.8A3.05,3.05,0,0,1,107.52,62Z" transform="translate(-16.51 -13.92)"/><path class="cls-1" d="M69.88,38.16a2.69,2.69,0,0,1-2.53,2.37,1.86,1.86,0,0,1-1.49-2.1,2.44,2.44,0,0,1,2.53-2A1.49,1.49,0,0,1,69.88,38.16Z" transform="translate(-16.51 -13.92)"/><path class="cls-1" d="M128.69,17.7a.41.41,0,0,0-.41.41.41.41,0,0,0,.81,0A.41.41,0,0,0,128.69,17.7Z" transform="translate(-16.51 -13.92)"/><path class="cls-1" d="M168,40.3c-.72-.06-1.44-.08-2.16-.08q-14,0-28.07,0c-1,0-2.06.25-2.91-.32a1.51,1.51,0,0,1,0-1.29,32.89,32.89,0,0,0,2.38-9.5c.32-2.84.51-5.61-.78-8.44-.84-1.83-1.52-4.06-.18-6.43-3.61-.22-7-.42-10.52-.33-.09,1,.89,1.17.88,2-.88,1.85-.93,4.21-2.54,6a3,3,0,0,0-.55,1.8c-.09,3.91-.54,7.83.61,11.68.45,1.49.68,3,1,4.57-3.25.57-41.56.41-43.09-.14-.28-1.17,1.47-1.77.85-3-2.54-.51-2.84-.41-4.14,1.62-.72,1.13-1.53,2-3,1.94a2.23,2.23,0,0,0-2.48,1.95c.3,1,1.37.54,1.79,1.28a23.37,23.37,0,0,1-2.43,3.76,91.87,91.87,0,0,1-6.4,7.11c-1.8,1.93-3.7,3.76-5.59,5.6-.85.83-1.76,1.63-3,1.13-.55-1.11,0-1.86.47-2.59,2-3.18,4-6.34,6-9.51.32-.5,1-.95.3-1.75a6.05,6.05,0,0,0-5.8,2.24c-1.66,2-3.51,4-5.32,5.86-3.65,3.86-8,5.4-13.25,3.91-1.71-.5-3.59-.62-5.1-1.72.13-.31.15-.5.26-.6A48.83,48.83,0,0,0,45.6,43.12,4,4,0,0,1,48,41.22a35.46,35.46,0,0,0,6.84-3.47C57.93,35.69,61,33.48,63,30.14A6.55,6.55,0,0,0,64,26.53a2.81,2.81,0,0,0-2.72-3.05,6.81,6.81,0,0,0-4.75,1.32A42.64,42.64,0,0,0,43,39.45a5.72,5.72,0,0,1-4.83,3.3,14,14,0,0,0-5.53,1.65c2.92.47,5.12-.81,7.35-.93a1,1,0,0,1,.17,1.27c-2.07,3.59-3.9,7.33-6.49,10.61a2.77,2.77,0,0,1-3.51,1.09,43,43,0,0,0-6.75-1.59A7.82,7.82,0,0,0,17.71,56c-1.42.9-1.56,1.91-.54,3.2A6.85,6.85,0,0,0,23.86,62,17.36,17.36,0,0,0,30,60.24a3.78,3.78,0,0,1,3.82-.09,25.25,25.25,0,0,0,7.31,2.22c4.06.52,7.23-1.54,10.34-3.71,1.68-1.18,3-2.84,4.73-3.92-.52,1.54-1.7,2.82-1.63,4.61.11,2.41,1.92,3.79,4.22,3.06a11.54,11.54,0,0,0,4.68-3.2c1.6-1.63,3.16-3.29,4.73-4.94-.55,1.55-1.64,2.88-1.85,4.58-.38,3,1.79,4.75,4.62,3.62a5.24,5.24,0,0,0,1.49-.76,48.3,48.3,0,0,0,5.79-5.38c.38-.44.7-.91-.11-1.7-3.09,1.87-4.76,5.79-8.55,7a3.13,3.13,0,0,1,.42-3.38c2.7-4.25,5.49-8.45,8-12.82,1.23-2.18,2.82-2.67,5.06-2.62,9.42.2,18.85.37,28.27.29,4.86,0,9.71,0,14.59,0,.34.63.73,1.24,1,1.89a3,3,0,0,0,5.72.07c1.09-2.48,2.55-2.4,4.55-2a10.23,10.23,0,0,0,1.92,0c2.63-.06,5.26-.19,7.9-.2,6.62,0,13.24,0,19.86,0a5.92,5.92,0,0,0,1.19-.1,1.1,1.1,0,0,0,1-1.17A1.12,1.12,0,0,0,168,40.3ZM50.74,33.41A23.31,23.31,0,0,1,57.2,26.1a9.2,9.2,0,0,1,2.3-1.26c2-.67,3.35.5,2.88,2.6a10.24,10.24,0,0,1-2.68,4.73,34,34,0,0,1-12.54,8.19C47.88,37.39,49.5,35.48,50.74,33.41Zm-30.33,27c-1.11-.39-2.16-1-1.9-2.36s1.36-1.4,2.44-1.44a20.16,20.16,0,0,1,8.88,2C26.61,60.59,23.71,61.55,20.41,60.38Zm108.28-41.1a1.17,1.17,0,1,1,1.17-1.17A1.17,1.17,0,0,1,128.69,19.28Zm4.51,0a1.17,1.17,0,1,1,1.17-1.17A1.17,1.17,0,0,1,133.2,19.28ZM131.52,17,131,19.58,130.47,17l-2.58-1.86.13-.35L131,16.42l3-1.49.13.42Z" transform="translate(-16.51 -13.92)"/><path class="cls-1" d="M133.2,17.7a.42.42,0,0,0-.41.41.41.41,0,0,0,.41.4.4.4,0,0,0,.4-.4A.41.41,0,0,0,133.2,17.7Z" transform="translate(-16.51 -13.92)"/></svg>